<svg xmlns="http://www.w3.org/2000/svg" viewBox="0 0 764.59 764.59"><title>android</title><circle cx="382.3" cy="382.3" r="382.3" style="fill:#7bc251"/><path d="M193.27,290.75H192a30.61,30.61,0,0,0-30.52,30.52V454.16A30.58,30.58,0,0,0,192,484.7h1.33a30.61,30.61,0,0,0,30.52-30.54V321.27A30.65,30.65,0,0,0,193.27,290.75Z" style="fill:#fff"/><path d="M238.42,505.45a28.09,28.09,0,0,0,28.05,28h30v71.78A30.61,30.61,0,0,0,327,635.8h1.31a30.62,30.62,0,0,0,30.57-30.57V533.45h41.89v71.78A30.65,30.65,0,0,0,431.3,635.8h1.29a30.6,30.6,0,0,0,30.54-30.57V533.45h30a28.08,28.08,0,0,0,28-28V295.62H238.42V505.45Z" style="fill:#fff"/><path d="M450.21,168.38L474,131.62a5.06,5.06,0,0,0-8.48-5.51l-24.68,38a163.21,163.21,0,0,0-122.11,0l-24.64-38a5.08,5.08,0,0,0-8.53,5.51l23.83,36.75c-43,21.05-71.93,60.74-71.93,106.26,0,2.8.18,5.55,0.42,8.29H521.75c0.24-2.73.39-5.49,0.39-8.29C522.14,229.11,493.15,189.43,450.21,168.38ZM314,234.19a13.63,13.63,0,1,1,13.66-13.64A13.64,13.64,0,0,1,314,234.19Zm131.6,0a13.63,13.63,0,1,1,13.64-13.64A13.64,13.64,0,0,1,445.6,234.19Z" style="fill:#fff"/><path d="M567.62,290.75h-1.27a30.64,30.64,0,0,0-30.57,30.52V454.16a30.63,30.63,0,0,0,30.57,30.54h1.29a30.6,30.6,0,0,0,30.52-30.54V321.27A30.62,30.62,0,0,0,567.62,290.75Z" style="fill:#fff"/></svg>